<svg id="OBJECTS" xmlns="http://www.w3.org/2000/svg" xmlns:xlink="http://www.w3.org/1999/xlink" viewBox="0 0 484.67 192.78"><defs><style>.cls-1{fill:url(#Degradado_sin_nombre_120);}.cls-2{font-size:40px;}.cls-2,.cls-4,.cls-5,.cls-7{fill:#fff;font-family:ArialMT, Arial;}.cls-3{fill:url(#Degradado_sin_nombre_82);}.cls-4{font-size:95px;}.cls-5{font-size:46.18px;}.cls-6{fill:url(#Degradado_sin_nombre_120-2);}.cls-7{font-size:30.15px;}</style><linearGradient id="Degradado_sin_nombre_120" x1="228.3" y1="281.22" x2="493.74" y2="281.22" gradientUnits="userSpaceOnUse"><stop offset="0" stop-color="#ff55bd"/><stop offset="1" stop-color="#2a61ff"/></linearGradient><linearGradient id="Degradado_sin_nombre_82" x1="9.07" y1="284.49" x2="329.48" y2="284.49" gradientUnits="userSpaceOnUse"><stop offset="0" stop-color="#2a61ff"/><stop offset="1" stop-color="#2a2dbc"/></linearGradient><linearGradient id="Degradado_sin_nombre_120-2" x1="9.07" y1="375.8" x2="372.27" y2="375.8" xlink:href="#Degradado_sin_nombre_120"/></defs><path class="cls-1" d="M228.3,357.07H385.54c59.76,0,108.2-67.92,108.2-151.69H336.5C276.74,205.38,228.3,273.29,228.3,357.07Z" transform="translate(-9.07 -205.38)"/><text class="cls-2" transform="translate(335.42 75.85)">NEWS</text><text class="cls-2" transform="translate(359.94 128.64)">75</text><path class="cls-3" d="M9.07,363.56h0L329.48,357V205.42H136C62.42,205.42,9.07,279.84,9.07,363.56Z" transform="translate(-9.07 -205.38)"/><text class="cls-4" transform="translate(101.73 128.37)">LIVE</text><text class="cls-5" transform="translate(33.02 128.37)">HD</text><path class="cls-6" d="M9.07,363.56h0c30.12,24.3,61.4,31,100.1,31h263.1L329.48,357Z" transform="translate(-9.07 -205.38)"/><text class="cls-7" transform="translate(111.15 182.99)">BLOG</text></svg>