<svg id="OBJECTS" xmlns="http://www.w3.org/2000/svg" xmlns:xlink="http://www.w3.org/1999/xlink" viewBox="0 0 353.31 341.93"><defs><style>.cls-1{fill:url(#Degradado_sin_nombre_82);}.cls-2{font-size:23px;}.cls-2,.cls-4,.cls-5{fill:#fff;font-family:ArialMT, Arial;}.cls-3{fill:url(#Degradado_sin_nombre_120);}.cls-4{font-size:100px;}.cls-5{font-size:45px;}</style><linearGradient id="Degradado_sin_nombre_82" x1="267.01" y1="136.34" x2="426.65" y2="136.34" gradientUnits="userSpaceOnUse"><stop offset="0" stop-color="#2a61ff"/><stop offset="1" stop-color="#2a2dbc"/></linearGradient><linearGradient id="Degradado_sin_nombre_120" x1="73.35" y1="259.29" x2="426.65" y2="259.29" gradientUnits="userSpaceOnUse"><stop offset="0" stop-color="#ff55bd"/><stop offset="1" stop-color="#2a61ff"/></linearGradient></defs><path class="cls-1" d="M426.65,136.34v58s-55.17,21.86-79.82,21.86a79.83,79.83,0,1,1,79.82-79.83Z" transform="translate(-73.35 -56.52)"/><text class="cls-2" transform="translate(217.22 49.02)">HD NEWS</text><path class="cls-3" d="M73.35,343.08c0,48.49,32.81,55.37,73.21,55.37H304.09c32.32,0,72.31,0,72.31-55,0-57-55.75-50.41-92-50.41a12.6,12.6,0,0,1-12.59-12.6,12,12,0,0,1,12-12h68.71a74.19,74.19,0,0,0,0-148.37h-151a74.19,74.19,0,0,0,0,148.37,12,12,0,0,1,12,12,12.56,12.56,0,0,1-12.56,12.56H138.16S73.35,286.45,73.35,343.08Z" transform="translate(-73.35 -56.52)"/><text class="cls-4" transform="translate(92.67 176.36)">LIVE</text><text class="cls-5" transform="translate(23.61 313.93)">STREAMING</text></svg>