<svg id="Capa_1" data-name="Capa 1" xmlns="http://www.w3.org/2000/svg" viewBox="0 0 47.43 47.43"><defs><style>.cls-1{fill:#222221;}.cls-2{fill:#fff;}</style></defs><rect class="cls-1" width="47.43" height="47.43" rx="8.47"/><path class="cls-2" d="M154.11,260.27a14.74,14.74,0,0,0,22.68-13.09,10.51,10.51,0,0,0,2.59-2.69,10.61,10.61,0,0,1-3,.82,5.17,5.17,0,0,0,2.28-2.87,10.4,10.4,0,0,1-3.29,1.26,5.18,5.18,0,0,0-8.83,4.73A14.73,14.73,0,0,1,155.87,243a5.19,5.19,0,0,0,1.61,6.92,5.19,5.19,0,0,1-2.35-.65,5.18,5.18,0,0,0,4.15,5.15,5.09,5.09,0,0,1-2.34.09,5.19,5.19,0,0,0,4.85,3.6A10.45,10.45,0,0,1,154.11,260.27Z" transform="translate(-143.03 -228.62)"/></svg>