<svg xmlns="http://www.w3.org/2000/svg" viewBox="0 0 573.78 573.78"><defs><style>.cls-1{fill:#ea3442;}</style></defs><g id="objects"><path class="cls-1" d="M300.92,14.22c-158.18,0-286.87,128.69-286.87,286.91S142.74,588,301,588,587.83,459.31,587.83,301.13v0C587.83,142.91,459.14,14.22,300.92,14.22ZM541.84,301.13C541.84,434,433.78,542,300.92,542S60,434,60,301.09,168.1,60.21,301,60.21,541.84,168.27,541.84,301.09Z" transform="translate(-14.05 -14.22)"/><polygon class="cls-1" points="383.35 118.88 286.89 215.34 190.43 118.88 118.88 190.43 215.34 286.89 118.88 383.35 190.43 454.9 286.89 358.44 383.35 454.9 454.9 383.35 358.44 286.89 454.9 190.43 383.35 118.88"/></g></svg>