<svg id="Capa_1" data-name="Capa 1" xmlns="http://www.w3.org/2000/svg" viewBox="0 0 47.43 47.43"><defs><style>.cls-1{fill:#222221;}.cls-2{fill:#fff;}</style></defs><rect class="cls-1" width="47.43" height="47.43" rx="8.47"/><path class="cls-2" d="M107.72,241.67c3.47,0,3.88,0,5.25.08a7.16,7.16,0,0,1,2.41.44,4.07,4.07,0,0,1,1.5,1,3.93,3.93,0,0,1,1,1.49,7.22,7.22,0,0,1,.45,2.42c.06,1.37.08,1.78.08,5.25s0,3.88-.08,5.25a7.22,7.22,0,0,1-.45,2.42,4,4,0,0,1-1,1.49,4.07,4.07,0,0,1-1.5,1,7.16,7.16,0,0,1-2.41.44c-1.37.07-1.78.08-5.25.08s-3.89,0-5.26-.08a7.22,7.22,0,0,1-2.41-.44,4.07,4.07,0,0,1-1.5-1,4.13,4.13,0,0,1-1-1.49,7.22,7.22,0,0,1-.45-2.42c-.06-1.37-.07-1.78-.07-5.25s0-3.88.07-5.25a7.22,7.22,0,0,1,.45-2.42,4.33,4.33,0,0,1,2.47-2.47,7.22,7.22,0,0,1,2.41-.44c1.37-.07,1.78-.08,5.26-.08m0-2.34c-3.54,0-4,0-5.37.08a9.51,9.51,0,0,0-3.15.6,6.66,6.66,0,0,0-3.8,3.8,9.25,9.25,0,0,0-.61,3.16c-.06,1.39-.08,1.83-.08,5.36s0,4,.08,5.36a9.3,9.3,0,0,0,.61,3.16,6.66,6.66,0,0,0,3.8,3.8,9.51,9.51,0,0,0,3.15.6c1.39.07,1.83.08,5.37.08s4,0,5.36-.08a9.45,9.45,0,0,0,3.15-.6,6.42,6.42,0,0,0,2.31-1.5,6.52,6.52,0,0,0,1.5-2.3,9.57,9.57,0,0,0,.6-3.16c.06-1.39.08-1.83.08-5.36s0-4-.08-5.36a9.52,9.52,0,0,0-.6-3.16,6.52,6.52,0,0,0-1.5-2.3,6.42,6.42,0,0,0-2.31-1.5,9.45,9.45,0,0,0-3.15-.6c-1.39-.07-1.83-.08-5.36-.08" transform="translate(-84 -228.62)"/><path class="cls-2" d="M107.72,245.65a6.68,6.68,0,1,0,6.67,6.68,6.68,6.68,0,0,0-6.67-6.68m0,11a4.33,4.33,0,1,1,4.33-4.33,4.33,4.33,0,0,1-4.33,4.33" transform="translate(-84 -228.62)"/><path class="cls-2" d="M116.22,245.39a1.56,1.56,0,1,1-1.56-1.56,1.56,1.56,0,0,1,1.56,1.56" transform="translate(-84 -228.62)"/></svg>