<svg id="Capa_1" data-name="Capa 1" xmlns="http://www.w3.org/2000/svg" viewBox="0 0 47.43 47.43"><defs><style>.cls-1{fill:#222221;}.cls-2{fill:#fff;}</style></defs><rect class="cls-1" width="47.43" height="47.43" rx="8.47"/><rect class="cls-2" x="12.96" y="18.43" width="4.91" height="15.85"/><path class="cls-2" d="M216.14,245.87a2.93,2.93,0,1,0-2.9-2.92A2.91,2.91,0,0,0,216.14,245.87Z" transform="translate(-200.75 -229.52)"/><path class="cls-2" d="M226.47,255.48c0-2.23,1-3.55,3-3.55,1.8,0,2.67,1.27,2.67,3.55v8.32H237v-10c0-4.25-2.4-6.3-5.76-6.3a5.52,5.52,0,0,0-4.78,2.62V248h-4.71V263.8h4.71Z" transform="translate(-200.75 -229.52)"/></svg>